# xmcd
#
# Track frame offsets: 
#        150
#        17185
#        28908
#        41255
#        52070
#        66088
#        77863
#        90850
#        101808
#        115850
#        129900
#        143435
#        157253
#        169118
#        183440
#        195788
#
# Disc length: 2775 seconds
#
# Revision: 2
# Processed by: cddbd v1.5.2PL0 Copyright (c) Steve Scherf et al.
# Submitted via: ExactAudioCopyFreeDBPlugin 1.0
#
DISCID=cc0ad510
DTITLE=Various Artist - Legendary Blues Classics - Vol. One
DYEAR=1900
DGENRE=Blues
TTITLE0=Mitty Collier - I Had A Talk With My Man
TTITLE1=John Lee Hooker - Boogie Chillen'
TTITLE2=Little Milton - We're Gonna Make It
TTITLE3=Lightnin’ Hopkins - Nothin' But The Blues
TTITLE4=Howlin' Wolf - Smoke Stack Lightning
TTITLE5=Sonny Boy Williamson - Don't Start Me Talkin'
TTITLE6=Muddy Waters - I'm Your Hoochie Cooche Man
TTITLE7=Etta James - Tell Mama
TTITLE8=Little Walter - Blues With A Feeling
TTITLE9=Elmore James - It Hurts Me Too
TTITLE10=Koko Taylor - Wang Dang Doodle
TTITLE11=Albert King - Searchin' For A Woman
TTITLE12=Washboard Sam - Diggin' My Potatoes
TTITLE13=Lowell Fulson - Reconsider Baby
TTITLE14=Otis Spann - I'm Leaving You
TTITLE15=Big Bill Broonzy - Lonesome
EXTD=
EXTT0=
EXTT1=
EXTT2=
EXTT3=
EXTT4=
EXTT5=
EXTT6=
EXTT7=
EXTT8=
EXTT9=
EXTT10=
EXTT11=
EXTT12=
EXTT13=
EXTT14=
EXTT15=
PLAYORDER=
